HIERARCHY
ROOT SpineBase
{
  OFFSET 0.000000 0.000000 0.000000
  CHANNELS 6 Xposition Yposition Zposition Zrotation Xrotation Yrotation
  JOINT SpineMid
  {
    OFFSET 0.000000 27.155680 0.000000
    CHANNELS 3 Zrotation Xrotation Yrotation
    JOINT SpineShoulder
    {
      OFFSET -0.108412 20.201768 -0.629544
      CHANNELS 3 Zrotation Xrotation Yrotation
      JOINT Neck
      {
        OFFSET -0.059379 6.701594 -0.493335
        CHANNELS 3 Zrotation Xrotation Yrotation
        JOINT Head
        {
          OFFSET 1.416827 12.164702 0.614231
          CHANNELS 3 Zrotation Xrotation Yrotation
          End Site
          {
            OFFSET 0 0 0
          }
        }
      }
      JOINT ShoulderLeft
      {
        OFFSET -12.863453 -2.717495 -7.312053
        CHANNELS 3 Zrotation Xrotation Yrotation
        JOINT ElbowLeft
        {
          OFFSET -5.912281 -22.122802 -2.573024
          CHANNELS 3 Zrotation Xrotation Yrotation
          JOINT WristLeft
          {
            OFFSET 1.052058 -18.130832 -5.463413
            CHANNELS 3 Zrotation Xrotation Yrotation
            JOINT HandLeft
            {
              OFFSET 1.074095 -6.829492 0.017940
              CHANNELS 3 Zrotation Xrotation Yrotation
              JOINT HandTipLeft
              {
                OFFSET 0.760650 -6.354835 -0.835815
                CHANNELS 3 Zrotation Xrotation Yrotation
                End Site
                {
                  OFFSET 0 0 0
                }
              }
              JOINT ThumbLeft
              {
                OFFSET -3.384880 -0.594636 -1.637123
                CHANNELS 3 Zrotation Xrotation Yrotation
                End Site
                {
                  OFFSET 0 0 0
                }
              }
            }
          }
        }
      }
      JOINT ShoulderRight
      {
        OFFSET 11.019787 -4.211685 3.832604
        CHANNELS 3 Zrotation Xrotation Yrotation
        JOINT ElbowRight
        {
          OFFSET 0.813177 -24.697850 2.750445
          CHANNELS 3 Zrotation Xrotation Yrotation
          JOINT WristRight
          {
            OFFSET 0.316470 -21.402239 -4.012486
            CHANNELS 3 Zrotation Xrotation Yrotation
            JOINT HandRight
            {
              OFFSET 1.356204 -3.611058 0.478058
              CHANNELS 3 Zrotation Xrotation Yrotation
              JOINT HandTipRight
              {
                OFFSET 0.180430 -5.848073 -0.735752
                CHANNELS 3 Zrotation Xrotation Yrotation
                End Site
                {
                  OFFSET 0 0 0
                }
              }
              JOINT ThumbRight
              {
                OFFSET -1.964227 0.626112 -3.496424
                CHANNELS 3 Zrotation Xrotation Yrotation
                End Site
                {
                  OFFSET 0 0 0
                }
              }
            }
          }
        }
      }
    }
  }
  JOINT HipLeft
  {
    OFFSET -5.564358 0.854208 -5.180577
    CHANNELS 3 Zrotation Xrotation Yrotation
    JOINT KneeLeft
    {
      OFFSET -8.009079 -28.524904 -0.999251
      CHANNELS 3 Zrotation Xrotation Yrotation
      JOINT AnkleLeft
      {
        OFFSET -4.343300 -32.715860 8.328482
        CHANNELS 3 Zrotation Xrotation Yrotation
        JOINT FootLeft
        {
          OFFSET 3.819735 -4.930128 -5.908248
          CHANNELS 3 Zrotation Xrotation Yrotation
          End Site
          {
            OFFSET 0 0 0
          }
        }
      }
    }
  }
  JOINT HipRight
  {
    OFFSET 5.297926 0.463569 -0.788190
    CHANNELS 3 Zrotation Xrotation Yrotation
    JOINT KneeRight
    {
      OFFSET -4.132196 -28.507792 3.151549
      CHANNELS 3 Zrotation Xrotation Yrotation
      JOINT AnkleRight
      {
        OFFSET -4.536064 -34.273072 7.722724
        CHANNELS 3 Zrotation Xrotation Yrotation
        JOINT FootRight
        {
          OFFSET -5.948029 -6.733357 -1.039682
          CHANNELS 3 Zrotation Xrotation Yrotation
          End Site
          {
            OFFSET 0 0 0
          }
        }
      }
    }
  }
}
MOTION
Frames: 5
Frame Time: 0.033333
14.644533 69.050653 369.824145 -0.000000 0.000000 -22.016952 0.000000 0.000000 22.016952 -0.000000 0.000000 0.000000 -0.000000 0.000000 0.000000 0.000000 0.000000 0.000000 -0.000000 0.000000 0.000000 -0.000000 0.000000 0.000000 -0.000000 0.000000 0.000000 -0.000000 0.000000 0.000000 0.000000 0.000000 0.000000 0.000000 0.000000 0.000000 -0.000000 0.000000 0.000000 -0.000000 0.000000 0.000000 -0.000000 0.000000 0.000000 -0.000000 0.000000 0.000000 0.000000 0.000000 0.000000 0.000000 0.000000 0.000000 0.000000 0.000000 22.016952 -0.000000 0.000000 0.000000 -0.000000 0.000000 0.000000 0.000000 0.000000 0.000000 0.000000 0.000000 22.016952 -0.000000 0.000000 0.000000 -0.000000 0.000000 0.000000 0.000000 0.000000 0.000000
14.633716 69.053232 369.841038 0.025818 -0.011471 -22.013446 -0.028235 0.000957 22.013448 -0.000000 0.000000 0.000000 -0.000000 0.000000 0.000000 0.000000 0.000000 0.000000 -0.000000 0.000000 0.000000 -0.000000 0.000000 0.000000 0.441604 1.479413 0.228012 -2.327125 -0.739125 0.059527 0.000000 0.000000 0.000000 0.000000 0.000000 0.000000 0.753061 -1.430794 0.046083 -1.313843 2.846783 0.119650 0.291933 -5.007769 -1.513044 -0.176610 2.399225 1.402645 0.000000 0.000000 0.000000 0.000000 0.000000 0.000000 -0.028235 0.000957 22.013448 -0.000000 0.000000 0.000000 -0.775330 -8.639847 -6.447342 0.000000 0.000000 0.000000 -0.028235 0.000957 22.013448 -0.000000 0.000000 0.000000 13.329556 10.539264 -13.806156 0.000000 0.000000 0.000000
14.623914 69.054810 369.854781 0.043059 -0.022174 -22.021100 -0.048232 0.004411 22.021111 -0.000000 0.000000 0.000000 -0.000000 0.000000 0.000000 0.000000 0.000000 0.000000 -0.561462 -0.798853 0.274746 -0.234353 0.014400 -0.082213 1.807254 3.647731 0.214114 -4.326855 -1.609486 -0.024352 0.000000 0.000000 0.000000 0.000000 0.000000 0.000000 1.423451 -2.718395 0.102472 -2.415357 5.192425 0.255579 0.174679 -8.402816 -2.599835 -0.287182 3.721308 2.411764 0.000000 0.000000 0.000000 0.000000 0.000000 0.000000 -0.048232 0.004411 22.021111 -0.000000 0.000000 0.000000 -2.661266 -17.012804 -13.007521 0.000000 0.000000 0.000000 -0.048232 0.004411 22.021111 -0.000000 0.000000 0.000000 30.350359 17.464883 -31.240139 0.000000 0.000000 0.000000
14.615127 69.055386 369.865375 0.051741 -0.032115 -22.039930 -0.060011 0.010352 22.039950 -0.000000 0.000000 0.000000 -0.000000 0.000000 0.000000 0.000000 0.000000 0.000000 -0.777484 -1.085250 0.372837 -0.370828 -0.079918 -0.098387 2.850300 5.272298 0.265126 -5.958167 -2.583023 -0.224114 0.000000 0.000000 0.000000 0.000000 0.000000 0.000000 2.009704 -3.860127 0.163711 -3.312907 7.061189 0.386328 -0.276211 -10.190658 -3.258119 -0.324754 3.952955 3.006155 0.000000 0.000000 0.000000 0.000000 0.000000 0.000000 -0.060011 0.010352 22.039950 -0.000000 0.000000 0.000000 -5.415865 -24.211403 -19.227873 0.000000 0.000000 0.000000 -0.060011 0.010352 22.039950 -0.000000 0.000000 0.000000 44.699413 19.014298 -45.852063 0.000000 0.000000 0.000000
14.607355 69.054960 369.872818 0.051874 -0.041297 -22.069935 -0.063590 0.018780 22.069964 -0.000000 0.000000 0.000000 -0.000000 0.000000 0.000000 0.000000 0.000000 0.000000 -0.950290 -1.294948 0.445471 -0.518072 -0.239426 -0.099168 3.982823 6.695335 0.265996 -7.181710 -3.633374 -0.503878 0.000000 0.000000 0.000000 0.000000 0.000000 0.000000 2.510580 -4.854444 0.224916 -4.011880 8.474587 0.495503 -1.014151 -10.390105 -3.461749 -0.311535 3.098411 3.167298 0.000000 0.000000 0.000000 0.000000 0.000000 0.000000 -0.063590 0.018780 22.069964 -0.000000 0.000000 0.000000 -8.555521 -29.764440 -24.629844 0.000000 0.000000 0.000000 -0.063590 0.018780 22.069964 -0.000000 0.000000 0.000000 53.668684 18.179915 -54.936468 0.000000 0.000000 0.000000
